{
  "title": "Marvels Agents of S.H.I.E.L.D S04E01 The Ghost 1080P WEB-DL DD5",
  "uid": 15872722,
  "size": 1830446271,
  "categoryP": "video",
  "categoryS": "hd___tv_shows",
  "magnet": "?xt=urn:btih:f5aa0b69cbf37f56428ae6895891c39e3a94589b&amp;dn=Marvels+Agents+of+S.H.I.E.L.D+S04E01+The+Ghost+1080P+WEB-DL+DD5+&amp;tr=udp%3A%2F%2Ftracker.leechers-paradise.org%3A6969&amp;tr=udp%3A%2F%2Fzer0day.ch%3A1337&amp;tr=udp%3A%2F%2Fopen.demonii.com%3A1337&amp;tr=udp%3A%2F%2Ftracker.coppersurfer.tk%3A6969&amp;tr=udp%3A%2F%2Fexodus.desync.com%3A6969",
  "seeders": 120,
  "leechers": 8,
  "uploader": "jmanwf",
  "files": 1,
  "time": 1474455738,
  "description": "Coulson finds himself back in the role of agent and teams with Mack to track down and confirm the / Vengeance runs rampant this season as Coulson is a mere agent again, and Daisy has gone rogue after being under Hive's control. How will S.H.I.E.L.D. deal with the arrival of The Ghost Rider?\r\n\r\n\r\nVideo\r\nID : 2\r\nFormat : AVC\r\nFormat/Info : Advanced Video Codec\r\nFormat profile :   \r\nFormat settings, CABAC : Yes\r\nFormat settings, ReFrames : 4 frames\r\nCodec ID : V_MPEG4/ISO/AVC\r\nDuration : 43 min 1 s\r\nBit rate : 5 162 kb/s\r\nWidth : 1 920 pixels\r\nHeight : 1 080 pixels\r\nDisplay aspect ratio : 16:9\r\nFrame rate mode : Constant\r\nFrame rate : 23.976 (23976/1000) FPS\r\nColor space : YUV\r\nChroma subsampling : 4:2:0\r\nBit depth : 8 bits\r\nScan type : Progressive\r\nBits/(Pixel*Frame) : 0.104\r\nStream size : 1.55 GiB (91%)\r\nLanguage : English\r\nDefault : Yes\r\nForced : No\r\nColor range : Limited\r\nColor primaries : BT.709\r\nTransfer characteristics : BT.709\r\nMatrix coefficients : BT.709\r\n\r\nAudio #1\r\nID : 1\r\nFormat : AAC\r\nFormat/Info : Advanced Audio Codec\r\nFormat profile : LC\r\nCodec ID : A_AAC\r\nDuration : 43 min 1 s\r\nBit rate : 124 kb/s\r\nChannel(s) : 2 channels\r\nChannel positions : Front: L R\r\nSampling rate : 48.0 kHz\r\nFrame rate : 46.875 FPS (1024 spf)\r\nCompression mode : Lossy\r\nStream size : 38.1 MiB (2%)\r\nLanguage : English\r\nDefault : Yes\r\nForced : No\r\n\r\nAudio #2\r\nID : 3\r\nFormat : AC-3\r\nFormat/Info : Audio Coding 3\r\nMode extension : CM (complete main)\r\nFormat settings, Endianness : Big\r\nCodec ID : A_AC3\r\nDuration : 43 min 1 s\r\nBit rate mode : Constant\r\nBit rate : 384 kb/s\r\nChannel(s) : 6 channels\r\nChannel positions : Front: L C R, Side: L R, LFE\r\nSampling rate : 48.0 kHz\r\nFrame rate : 31.250 FPS (1536 spf)\r\nCompression mode : Lossy\r\nStream size : 118 MiB (7%)\r\nLanguage : English\r\nDefault : No\r\nForced : No\r\n\r\nText\r\nID : 4\r\nFormat : UTF-8\r\nCodec ID : S_TEXT/UTF8\r\nCodec ID/Info : UTF-8 Plain Text\r\nDuration : 41 min 55 s\r\nBit rate : 107 b/s\r\nCount of elements : 808\r\nStream size : 33.1 KiB (0%)\r\nLanguage : English\r\nDefault : Yes\r\nForced : No",
  "parsed": {
    "xt": "urn:btih:f5aa0b69cbf37f56428ae6895891c39e3a94589b",
    "dn": "Marvels Agents of S.H.I.E.L.D S04E01 The Ghost 1080P WEB-DL DD5 ",
    "tr": [
      "udp://exodus.desync.com:6969",
      "udp://open.demonii.com:1337",
      "udp://tracker.coppersurfer.tk:6969",
      "udp://tracker.leechers-paradise.org:6969",
      "udp://zer0day.ch:1337"
    ],
    "infoHash": "f5aa0b69cbf37f56428ae6895891c39e3a94589b",
    "infoHashBuffer": {
      "type": "Buffer",
      "data": [
        245,
        170,
        11,
        105,
        203,
        243,
        127,
        86,
        66,
        138,
        230,
        137,
        88,
        145,
        195,
        158,
        58,
        148,
        88,
        155
      ]
    },
    "name": "Marvels Agents of S.H.I.E.L.D S04E01 The Ghost 1080P WEB-DL DD5 ",
    "announce": [
      "udp://exodus.desync.com:6969",
      "udp://open.demonii.com:1337",
      "udp://tracker.coppersurfer.tk:6969",
      "udp://tracker.leechers-paradise.org:6969",
      "udp://zer0day.ch:1337"
    ],
    "urlList": []
  },
  "previous": 128,
  "peers": 106,
  "last_updated": "2016-12-25T18:14:56.155Z"
}